<?xml version="1.0" encoding="utf-8"?>
<!-- Generator: Adobe Illustrator 16.0.0, SVG Export Plug-In . SVG Version: 6.00 Build 0)  -->
<!DOCTYPE svg PUBLIC "-//W3C//DTD SVG 1.1//EN" "http://www.w3.org/Graphics/SVG/1.1/DTD/svg11.dtd">
<svg version="1.1" id="Layer_1" xmlns="http://www.w3.org/2000/svg" xmlns:xlink="http://www.w3.org/1999/xlink" x="0px" y="0px"
	 width="510px" height="300px" viewBox="0 0 510 300" enable-background="new 0 0 510 300" xml:space="preserve">
<g>
	<rect x="137.944" y="124.074" fill="#CCCCCC" width="120.981" height="69.133"/>
	<rect x="120.661" y="106.793" fill="#FF9973" width="120.981" height="69.131"/>
	<rect x="293.492" y="124.074" fill="#CCCCCC" width="120.981" height="69.133"/>
	<rect x="276.209" y="106.793" fill="#FF9973" width="120.981" height="69.131"/>
	<rect x="137.944" y="20.377" fill="#CCCCCC" width="120.981" height="69.133"/>
	<rect x="120.661" y="3.094" fill="#FF9973" width="120.981" height="69.133"/>
	<rect x="293.492" y="20.377" fill="#CCCCCC" width="120.981" height="69.133"/>
	<rect x="276.209" y="3.094" fill="#FF9973" width="120.981" height="69.133"/>
	
		<line fill="none" stroke="#000000" stroke-width="0.5" stroke-linecap="round" stroke-linejoin="round" stroke-miterlimit="10" x1="241.643" y1="141.357" x2="276.209" y2="141.357"/>
	<polygon points="263.436,146.65 276.209,141.357 263.436,136.066 	"/>
	
		<polygon fill="none" stroke="#000000" stroke-width="0.5" stroke-linecap="round" stroke-linejoin="round" stroke-miterlimit="10" points="
		263.436,146.65 276.209,141.357 263.436,136.066 	"/>
	<polygon points="254.416,136.066 241.643,141.357 254.416,146.65 	"/>
	
		<polygon fill="none" stroke="#000000" stroke-width="0.5" stroke-linecap="round" stroke-linejoin="round" stroke-miterlimit="10" points="
		254.416,136.066 241.643,141.357 254.416,146.65 	"/>
	
		<line fill="none" stroke="#000000" stroke-width="0.5" stroke-linecap="round" stroke-linejoin="round" stroke-miterlimit="10" x1="241.643" y1="37.66" x2="276.209" y2="37.66"/>
	<polygon points="263.436,42.951 276.209,37.66 263.436,32.369 	"/>
	
		<polygon fill="none" stroke="#000000" stroke-width="0.5" stroke-linecap="round" stroke-linejoin="round" stroke-miterlimit="10" points="
		263.436,42.951 276.209,37.66 263.436,32.369 	"/>
	<polygon points="254.416,32.369 241.643,37.66 254.416,42.951 	"/>
	
		<polygon fill="none" stroke="#000000" stroke-width="0.5" stroke-linecap="round" stroke-linejoin="round" stroke-miterlimit="10" points="
		254.416,32.369 241.643,37.66 254.416,42.951 	"/>
	
		<line fill="none" stroke="#000000" stroke-width="0.5" stroke-linecap="round" stroke-linejoin="round" stroke-miterlimit="10" x1="179.424" y1="106.793" x2="179.424" y2="72.227"/>
	<polygon points="184.717,85 179.424,72.227 174.135,85 	"/>
	
		<polygon fill="none" stroke="#000000" stroke-width="0.5" stroke-linecap="round" stroke-linejoin="round" stroke-miterlimit="10" points="
		184.717,85 179.424,72.227 174.135,85 	"/>
	<polygon points="174.135,94.018 179.424,106.793 184.717,94.018 	"/>
	
		<polygon fill="none" stroke="#000000" stroke-width="0.5" stroke-linecap="round" stroke-linejoin="round" stroke-miterlimit="10" points="
		174.135,94.018 179.424,106.793 184.717,94.018 	"/>
	
		<line fill="none" stroke="#000000" stroke-width="0.5" stroke-linecap="round" stroke-linejoin="round" stroke-miterlimit="10" x1="334.972" y1="106.793" x2="334.972" y2="72.227"/>
	<polygon points="340.264,85 334.972,72.227 329.682,85 	"/>
	
		<polygon fill="none" stroke="#000000" stroke-width="0.5" stroke-linecap="round" stroke-linejoin="round" stroke-miterlimit="10" points="
		340.264,85 334.972,72.227 329.682,85 	"/>
	<polygon points="329.682,94.018 334.972,106.793 340.264,94.018 	"/>
	
		<polygon fill="none" stroke="#000000" stroke-width="0.5" stroke-linecap="round" stroke-linejoin="round" stroke-miterlimit="10" points="
		329.682,94.018 334.972,106.793 340.264,94.018 	"/>
	<g>
		<path d="M155.156,149.26c-1.1,0.551-3.305,1.102-6.13,1.102c-6.545,0-11.47-4.135-11.47-11.744
			c0-7.268,4.925-12.193,12.125-12.193c2.893,0,4.719,0.621,5.509,1.033l-0.723,2.445c-1.138-0.551-2.754-0.965-4.685-0.965
			c-5.441,0-9.058,3.479-9.058,9.574c0,5.684,3.271,9.334,8.922,9.334c1.823,0,3.683-0.377,4.888-0.963L155.156,149.26z"/>
		<path d="M158.907,127.078c1.448-0.24,3.342-0.447,5.752-0.447c2.964,0,5.134,0.688,6.512,1.93
			c1.272,1.102,2.032,2.789,2.032,4.855c0,2.102-0.621,3.754-1.793,4.959c-1.583,1.689-4.166,2.549-7.096,2.549
			c-0.895,0-1.722-0.035-2.41-0.207v9.301h-2.997V127.078z M161.904,138.271c0.655,0.172,1.482,0.24,2.481,0.24
			c3.615,0,5.819-1.754,5.819-4.957c0-3.066-2.171-4.547-5.476-4.547c-1.31,0-2.309,0.102-2.825,0.24V138.271z"/>
		<path d="M180.224,126.803v13.742c0,5.201,2.31,7.406,5.408,7.406c3.442,0,5.647-2.273,5.647-7.406v-13.742h3.031v13.535
			c0,7.131-3.754,10.057-8.783,10.057c-4.753,0-8.335-2.721-8.335-9.92v-13.672H180.224z"/>
	</g>
	<g>
		<path d="M208.674,152.75c0.604,0.385,2.001,0.988,3.473,0.988c2.721,0,3.564-1.734,3.541-3.037
			c-0.023-2.193-1.998-3.133-4.047-3.133h-1.182v-1.59h1.182c1.543,0,3.494-0.797,3.494-2.652c0-1.254-0.797-2.363-2.748-2.363
			c-1.253,0-2.458,0.557-3.133,1.037l-0.557-1.543c0.82-0.604,2.41-1.205,4.098-1.205c3.085,0,4.482,1.832,4.482,3.736
			c0,1.615-0.962,2.99-2.889,3.688v0.049c1.927,0.385,3.493,1.832,3.493,4.025c0,2.506-1.951,4.699-5.711,4.699
			c-1.763,0-3.306-0.553-4.075-1.059L208.674,152.75z"/>
	</g>
	<g>
		<path d="M310.704,149.26c-1.101,0.551-3.305,1.102-6.13,1.102c-6.545,0-11.471-4.135-11.471-11.744
			c0-7.268,4.926-12.193,12.125-12.193c2.894,0,4.72,0.621,5.51,1.033l-0.723,2.445c-1.138-0.551-2.755-0.965-4.686-0.965
			c-5.441,0-9.057,3.479-9.057,9.574c0,5.684,3.271,9.334,8.922,9.334c1.822,0,3.683-0.377,4.888-0.963L310.704,149.26z"/>
		<path d="M314.454,127.078c1.448-0.24,3.342-0.447,5.752-0.447c2.964,0,5.135,0.688,6.512,1.93
			c1.272,1.102,2.032,2.789,2.032,4.855c0,2.102-0.621,3.754-1.792,4.959c-1.583,1.689-4.166,2.549-7.096,2.549
			c-0.895,0-1.722-0.035-2.41-0.207v9.301h-2.998V127.078z M317.452,138.271c0.654,0.172,1.481,0.24,2.48,0.24
			c3.615,0,5.82-1.754,5.82-4.957c0-3.066-2.171-4.547-5.476-4.547c-1.31,0-2.309,0.102-2.825,0.24V138.271z"/>
		<path d="M335.771,126.803v13.742c0,5.201,2.309,7.406,5.407,7.406c3.443,0,5.647-2.273,5.647-7.406v-13.742h3.031v13.535
			c0,7.131-3.754,10.057-8.783,10.057c-4.753,0-8.334-2.721-8.334-9.92v-13.672H335.771z"/>
	</g>
	<g>
		<path d="M370.273,155.186v-4.268h-7.281v-1.398l6.99-10.002h2.289v9.738h2.194v1.662h-2.194v4.268H370.273z M370.273,149.256
			v-5.23c0-0.82,0.023-1.639,0.07-2.459h-0.07c-0.482,0.916-0.867,1.592-1.303,2.313l-3.832,5.328v0.049H370.273z"/>
	</g>
	<g>
		<path d="M155.156,45.561c-1.1,0.553-3.305,1.103-6.13,1.103c-6.545,0-11.47-4.134-11.47-11.743
			c0-7.269,4.925-12.193,12.125-12.193c2.893,0,4.719,0.619,5.509,1.033l-0.723,2.445c-1.138-0.552-2.754-0.965-4.685-0.965
			c-5.441,0-9.058,3.479-9.058,9.574c0,5.684,3.271,9.334,8.922,9.334c1.823,0,3.683-0.379,4.888-0.964L155.156,45.561z"/>
		<path d="M158.907,23.38c1.448-0.239,3.342-0.447,5.752-0.447c2.964,0,5.134,0.688,6.512,1.929c1.272,1.103,2.032,2.79,2.032,4.855
			c0,2.102-0.621,3.754-1.793,4.961c-1.583,1.688-4.166,2.549-7.096,2.549c-0.895,0-1.722-0.035-2.41-0.207v9.299h-2.997V23.38z
			 M161.904,34.573c0.655,0.172,1.482,0.241,2.481,0.241c3.615,0,5.819-1.756,5.819-4.959c0-3.064-2.171-4.547-5.476-4.547
			c-1.31,0-2.309,0.104-2.825,0.242V34.573z"/>
		<path d="M180.224,23.104v13.742c0,5.202,2.31,7.406,5.408,7.406c3.442,0,5.647-2.274,5.647-7.406V23.104h3.031v13.536
			c0,7.129-3.754,10.057-8.783,10.057c-4.753,0-8.335-2.721-8.335-9.92V23.104H180.224z"/>
	</g>
	<g>
		<path d="M212.771,37.795h-0.047L210,39.266l-0.408-1.613l3.423-1.834h1.806v15.668h-2.049V37.795z"/>
	</g>
	<g>
		<path d="M310.704,45.561c-1.101,0.553-3.305,1.103-6.13,1.103c-6.545,0-11.471-4.134-11.471-11.743
			c0-7.269,4.926-12.193,12.125-12.193c2.894,0,4.72,0.619,5.51,1.033l-0.723,2.445c-1.138-0.552-2.755-0.965-4.686-0.965
			c-5.441,0-9.057,3.479-9.057,9.574c0,5.684,3.271,9.334,8.922,9.334c1.822,0,3.683-0.379,4.888-0.964L310.704,45.561z"/>
		<path d="M314.454,23.38c1.448-0.239,3.342-0.447,5.752-0.447c2.964,0,5.135,0.688,6.512,1.929c1.272,1.103,2.032,2.79,2.032,4.855
			c0,2.102-0.621,3.754-1.792,4.961c-1.583,1.688-4.166,2.549-7.096,2.549c-0.895,0-1.722-0.035-2.41-0.207v9.299h-2.998V23.38z
			 M317.452,34.573c0.654,0.172,1.481,0.241,2.48,0.241c3.615,0,5.82-1.756,5.82-4.959c0-3.064-2.171-4.547-5.476-4.547
			c-1.31,0-2.309,0.104-2.825,0.242V34.573z"/>
		<path d="M335.771,23.104v13.742c0,5.202,2.309,7.406,5.407,7.406c3.443,0,5.647-2.274,5.647-7.406V23.104h3.031v13.536
			c0,7.129-3.754,10.057-8.783,10.057c-4.753,0-8.334-2.721-8.334-9.92V23.104H335.771z"/>
	</g>
	<g>
		<path d="M363.715,51.486v-1.301l1.664-1.615c4-3.809,5.81-5.834,5.833-8.196c0-1.59-0.77-3.06-3.109-3.06
			c-1.421,0-2.603,0.723-3.325,1.324l-0.675-1.493c1.084-0.917,2.626-1.592,4.433-1.592c3.375,0,4.797,2.313,4.797,4.556
			c0,2.893-2.097,5.23-5.398,8.412l-1.252,1.158v0.047h7.038v1.76H363.715z"/>
	</g>
	
		<line fill="none" stroke="#000000" stroke-width="0.5" stroke-linecap="round" stroke-linejoin="round" stroke-miterlimit="10" x1="86.096" y1="141.357" x2="120.661" y2="141.357"/>
	<polygon points="107.889,146.65 120.661,141.357 107.889,136.066 	"/>
	
		<polygon fill="none" stroke="#000000" stroke-width="0.5" stroke-linecap="round" stroke-linejoin="round" stroke-miterlimit="10" points="
		107.889,146.65 120.661,141.357 107.889,136.066 	"/>
	<polygon points="98.869,136.066 86.096,141.357 98.869,146.65 	"/>
	
		<polygon fill="none" stroke="#000000" stroke-width="0.5" stroke-linecap="round" stroke-linejoin="round" stroke-miterlimit="10" points="
		98.869,136.066 86.096,141.357 98.869,146.65 	"/>
	
		<line fill="none" stroke="#000000" stroke-width="0.5" stroke-linecap="round" stroke-linejoin="round" stroke-miterlimit="10" x1="397.19" y1="141.357" x2="431.756" y2="141.357"/>
	<polygon points="418.983,146.65 431.756,141.357 418.983,136.066 	"/>
	
		<polygon fill="none" stroke="#000000" stroke-width="0.5" stroke-linecap="round" stroke-linejoin="round" stroke-miterlimit="10" points="
		418.983,146.65 431.756,141.357 418.983,136.066 	"/>
	<polygon points="409.964,136.066 397.19,141.357 409.964,146.65 	"/>
	
		<polygon fill="none" stroke="#000000" stroke-width="0.5" stroke-linecap="round" stroke-linejoin="round" stroke-miterlimit="10" points="
		409.964,136.066 397.19,141.357 409.964,146.65 	"/>
	
		<line fill="none" stroke="#000000" stroke-width="0.5" stroke-linecap="round" stroke-linejoin="round" stroke-miterlimit="10" x1="86.096" y1="37.66" x2="120.661" y2="37.66"/>
	<polygon points="107.889,42.951 120.661,37.66 107.889,32.369 	"/>
	
		<polygon fill="none" stroke="#000000" stroke-width="0.5" stroke-linecap="round" stroke-linejoin="round" stroke-miterlimit="10" points="
		107.889,42.951 120.661,37.66 107.889,32.369 	"/>
	<polygon points="98.869,32.369 86.096,37.66 98.869,42.951 	"/>
	
		<polygon fill="none" stroke="#000000" stroke-width="0.5" stroke-linecap="round" stroke-linejoin="round" stroke-miterlimit="10" points="
		98.869,32.369 86.096,37.66 98.869,42.951 	"/>
	
		<line fill="none" stroke="#000000" stroke-width="0.5" stroke-linecap="round" stroke-linejoin="round" stroke-miterlimit="10" x1="397.19" y1="37.66" x2="431.756" y2="37.66"/>
	<polygon points="418.983,42.951 431.756,37.66 418.983,32.369 	"/>
	
		<polygon fill="none" stroke="#000000" stroke-width="0.5" stroke-linecap="round" stroke-linejoin="round" stroke-miterlimit="10" points="
		418.983,42.951 431.756,37.66 418.983,32.369 	"/>
	<polygon points="409.964,32.369 397.19,37.66 409.964,42.951 	"/>
	
		<polygon fill="none" stroke="#000000" stroke-width="0.5" stroke-linecap="round" stroke-linejoin="round" stroke-miterlimit="10" points="
		409.964,32.369 397.19,37.66 409.964,42.951 	"/>
	<g>
		<path d="M10.638,130.76c1.366-0.281,3.317-0.436,5.181-0.436c2.883,0,4.743,0.527,6.046,1.705c1.057,0.93,1.645,2.357,1.645,3.971
			c0,2.76-1.735,4.59-3.939,5.332v0.096c1.613,0.557,2.575,2.045,3.071,4.217c0.682,2.916,1.179,4.932,1.613,5.738h-2.791
			c-0.341-0.59-0.807-2.389-1.397-4.994c-0.621-2.883-1.735-3.969-4.186-4.063h-2.542v9.057h-2.7V130.76z M13.338,140.279h2.758
			c2.886,0,4.716-1.58,4.716-3.969c0-2.699-1.955-3.877-4.807-3.91c-1.304,0-2.235,0.125-2.667,0.25V140.279z"/>
		<path d="M30.695,144.807l-2.171,6.576h-2.792l7.103-20.904h3.254l7.133,20.904h-2.883l-2.234-6.576H30.695z M37.548,142.699
			l-2.046-6.018c-0.466-1.363-0.776-2.605-1.087-3.814h-0.061c-0.311,1.24-0.651,2.512-1.057,3.783l-2.046,6.049H37.548z"/>
		<path d="M63.897,142.201c-0.155-2.914-0.341-6.42-0.311-9.023h-0.095c-0.712,2.451-1.58,5.055-2.637,7.939l-3.689,10.141h-2.045
			l-3.383-9.955c-0.992-2.947-1.829-5.645-2.417-8.125h-0.063c-0.062,2.604-0.217,6.109-0.402,9.242l-0.561,8.963h-2.571
			l1.458-20.904h3.439l3.568,10.111c0.867,2.574,1.583,4.867,2.109,7.041h0.092c0.529-2.111,1.272-4.406,2.204-7.041l3.72-10.111
			h3.443l1.303,20.904h-2.637L63.897,142.201z"/>
		<path d="M70.034,159.875c0.452,0.291,1.502,0.742,2.603,0.742c2.046,0,2.681-1.303,2.66-2.279
			c-0.017-1.646-1.502-2.352-3.038-2.352h-0.888v-1.195h0.888c1.158,0,2.623-0.596,2.623-1.99c0-0.939-0.598-1.771-2.063-1.771
			c-0.942,0-1.847,0.416-2.353,0.777l-0.416-1.156c0.615-0.453,1.81-0.906,3.075-0.906c2.316,0,3.366,1.377,3.366,2.805
			c0,1.211-0.723,2.242-2.171,2.768v0.037c1.448,0.289,2.623,1.373,2.623,3.021c0,1.881-1.465,3.527-4.287,3.527
			c-1.32,0-2.478-0.418-3.059-0.797L70.034,159.875z"/>
	</g>
	<g>
		<path d="M10.638,27.061c1.366-0.279,3.317-0.436,5.181-0.436c2.883,0,4.743,0.529,6.046,1.707c1.057,0.93,1.645,2.355,1.645,3.969
			c0,2.76-1.735,4.592-3.939,5.334v0.095c1.613,0.557,2.575,2.046,3.071,4.218c0.682,2.914,1.179,4.93,1.613,5.736h-2.791
			c-0.341-0.589-0.807-2.388-1.397-4.992c-0.621-2.885-1.735-3.97-4.186-4.064h-2.542v9.057h-2.7V27.061z M13.338,36.582h2.758
			c2.886,0,4.716-1.582,4.716-3.971c0-2.698-1.955-3.877-4.807-3.908c-1.304,0-2.235,0.125-2.667,0.25V36.582z"/>
		<path d="M30.695,41.108l-2.171,6.575h-2.792l7.103-20.902h3.254l7.133,20.902h-2.883l-2.234-6.575H30.695z M37.548,39
			l-2.046-6.017c-0.466-1.364-0.776-2.604-1.087-3.814h-0.061c-0.311,1.24-0.651,2.511-1.057,3.784L31.252,39H37.548z"/>
		<path d="M63.897,38.504c-0.155-2.914-0.341-6.42-0.311-9.024h-0.095c-0.712,2.45-1.58,5.055-2.637,7.939l-3.689,10.14h-2.045
			l-3.383-9.954c-0.992-2.946-1.829-5.644-2.417-8.125h-0.063c-0.062,2.604-0.217,6.11-0.402,9.242l-0.561,8.962h-2.571
			l1.458-20.902h3.439l3.568,10.111c0.867,2.574,1.583,4.867,2.109,7.039h0.092c0.529-2.109,1.272-4.404,2.204-7.039l3.72-10.111
			h3.443l1.303,20.902h-2.637L63.897,38.504z"/>
		<path d="M73.109,47.729h-0.037l-2.046,1.104l-0.307-1.215l2.568-1.373h1.357v11.759h-1.536V47.729z"/>
	</g>
	<g>
		<path d="M437.917,130.76c1.363-0.281,3.318-0.436,5.182-0.436c2.883,0,4.742,0.527,6.046,1.705
			c1.053,0.93,1.644,2.357,1.644,3.971c0,2.76-1.735,4.59-3.939,5.332v0.096c1.613,0.557,2.575,2.045,3.071,4.217
			c0.683,2.916,1.179,4.932,1.614,5.738h-2.792c-0.341-0.59-0.807-2.389-1.397-4.994c-0.617-2.883-1.735-3.969-4.186-4.063h-2.542
			v9.057h-2.7V130.76z M440.617,140.279h2.758c2.887,0,4.716-1.58,4.716-3.969c0-2.699-1.954-3.877-4.807-3.91
			c-1.303,0-2.234,0.125-2.667,0.25V140.279z"/>
		<path d="M457.975,144.807l-2.171,6.576h-2.791l7.103-20.904h3.254l7.133,20.904h-2.883l-2.231-6.576H457.975z M464.827,142.699
			l-2.046-6.018c-0.466-1.363-0.776-2.605-1.087-3.814h-0.061c-0.311,1.24-0.651,2.512-1.057,3.783l-2.046,6.049H464.827z"/>
		<path d="M491.177,142.201c-0.155-2.914-0.341-6.42-0.311-9.023h-0.095c-0.712,2.451-1.579,5.055-2.636,7.939l-3.689,10.141H482.4
			l-3.383-9.955c-0.992-2.947-1.829-5.645-2.416-8.125h-0.064c-0.061,2.604-0.216,6.109-0.401,9.242l-0.561,8.963h-2.572
			l1.458-20.904h3.443l3.564,10.111c0.867,2.574,1.583,4.867,2.109,7.041h0.092c0.529-2.111,1.272-4.406,2.204-7.041l3.72-10.111
			h3.443l1.303,20.904h-2.637L491.177,142.201z"/>
		<path d="M501.854,161.703v-3.201h-5.465v-1.051l5.249-7.508h1.719v7.309H505v1.25h-1.644v3.201H501.854z M501.854,157.252v-3.926
			c0-0.613,0.018-1.23,0.055-1.844h-0.055c-0.36,0.686-0.651,1.193-0.975,1.736l-2.88,3.998v0.035H501.854z"/>
	</g>
	<g>
		<path d="M437.917,27.061c1.363-0.279,3.318-0.436,5.182-0.436c2.883,0,4.742,0.529,6.046,1.707
			c1.053,0.93,1.644,2.355,1.644,3.969c0,2.76-1.735,4.592-3.939,5.334v0.095c1.613,0.557,2.575,2.046,3.071,4.218
			c0.683,2.914,1.179,4.93,1.614,5.736h-2.792c-0.341-0.589-0.807-2.388-1.397-4.992c-0.617-2.885-1.735-3.97-4.186-4.064h-2.542
			v9.057h-2.7V27.061z M440.617,36.582h2.758c2.887,0,4.716-1.582,4.716-3.971c0-2.698-1.954-3.877-4.807-3.908
			c-1.303,0-2.234,0.125-2.667,0.25V36.582z"/>
		<path d="M457.975,41.108l-2.171,6.575h-2.791l7.103-20.902h3.254l7.133,20.902h-2.883l-2.231-6.575H457.975z M464.827,39
			l-2.046-6.017c-0.466-1.364-0.776-2.604-1.087-3.814h-0.061c-0.311,1.24-0.651,2.511-1.057,3.784L458.531,39H464.827z"/>
		<path d="M491.177,38.504c-0.155-2.914-0.341-6.42-0.311-9.024h-0.095c-0.712,2.45-1.579,5.055-2.636,7.939l-3.689,10.14H482.4
			l-3.383-9.954c-0.992-2.946-1.829-5.644-2.416-8.125h-0.064c-0.061,2.604-0.216,6.11-0.401,9.242l-0.561,8.962h-2.572
			l1.458-20.902h3.443l3.564,10.111c0.867,2.574,1.583,4.867,2.109,7.039h0.092c0.529-2.109,1.272-4.404,2.204-7.039l3.72-10.111
			h3.443l1.303,20.902h-2.637L491.177,38.504z"/>
		<path d="M496.933,58.005v-0.978l1.249-1.211c3.004-2.859,4.361-4.379,4.378-6.15c0-1.195-0.581-2.299-2.333-2.299
			c-1.069,0-1.954,0.543-2.498,0.995l-0.506-1.122c0.813-0.688,1.972-1.193,3.328-1.193c2.532,0,3.602,1.736,3.602,3.42
			c0,2.17-1.576,3.926-4.054,6.313l-0.941,0.868v0.037h5.282v1.319H496.933z"/>
	</g>
	<rect x="155.228" y="227.773" fill="#CCCCCC" width="241.963" height="69.133"/>
	<rect x="137.944" y="210.49" fill="#8080FF" width="241.963" height="69.133"/>
	<g>
		<path d="M170.235,248.221c1.344,0.828,3.305,1.516,5.374,1.516c3.065,0,4.854-1.617,4.854-3.961c0-2.168-1.239-3.41-4.372-4.615
			c-3.791-1.342-6.133-3.305-6.133-6.578c0-3.617,2.997-6.303,7.511-6.303c2.376,0,4.098,0.551,5.131,1.137l-0.827,2.445
			c-0.756-0.414-2.309-1.102-4.408-1.102c-3.17,0-4.375,1.893-4.375,3.479c0,2.17,1.414,3.236,4.614,4.477
			c3.929,1.516,5.924,3.41,5.924,6.82c0,3.58-2.649,6.682-8.128,6.682c-2.238,0-4.683-0.656-5.921-1.48L170.235,248.221z"/>
		<path d="M202.607,243.398c0,6.166-4.271,8.852-8.301,8.852c-4.513,0-7.99-3.307-7.99-8.576c0-5.58,3.649-8.85,8.264-8.85
			C199.37,234.824,202.607,238.303,202.607,243.398z M189.382,243.572c0,3.65,2.1,6.406,5.063,6.406
			c2.893,0,5.063-2.721,5.063-6.477c0-2.824-1.415-6.404-4.996-6.404S189.382,240.402,189.382,243.572z"/>
		<path d="M220.377,247.324c0,1.725,0.033,3.24,0.138,4.547h-2.687l-0.172-2.721h-0.068c-0.793,1.344-2.548,3.1-5.512,3.1
			c-2.616,0-5.752-1.447-5.752-7.301v-9.748h3.031v9.23c0,3.17,0.965,5.305,3.72,5.305c2.032,0,3.443-1.412,3.997-2.756
			c0.172-0.447,0.273-0.998,0.273-1.549v-10.23h3.031V247.324z"/>
		<path d="M229.052,230.414v4.787h4.341v2.309h-4.341v8.99c0,2.066,0.587,3.236,2.275,3.236c0.79,0,1.377-0.102,1.755-0.207
			l0.139,2.273c-0.588,0.242-1.516,0.414-2.688,0.414c-1.41,0-2.548-0.447-3.271-1.275c-0.86-0.896-1.171-2.375-1.171-4.338v-9.094
			h-2.583v-2.309h2.583v-3.994L229.052,230.414z"/>
		<path d="M236.803,227.42h3.031v10.398h0.067c0.482-0.859,1.238-1.617,2.17-2.135c0.895-0.516,1.962-0.859,3.099-0.859
			c2.238,0,5.823,1.377,5.823,7.129v9.918h-3.031v-9.574c0-2.688-0.999-4.959-3.858-4.959c-1.965,0-3.514,1.377-4.064,3.029
			c-0.172,0.414-0.205,0.861-0.205,1.447v10.057h-3.031V227.42z"/>
		<path d="M255.776,251.871c0.067-1.135,0.139-2.822,0.139-4.305V227.42h2.994v10.469h0.07c1.067-1.859,2.998-3.064,5.682-3.064
			c4.135,0,7.062,3.443,7.028,8.506c0,5.959-3.754,8.92-7.474,8.92c-2.41,0-4.342-0.93-5.58-3.135h-0.104l-0.139,2.756H255.776z
			 M258.909,245.189c0,0.381,0.07,0.758,0.138,1.104c0.588,2.1,2.343,3.547,4.548,3.547c3.169,0,5.063-2.582,5.063-6.406
			c0-3.342-1.722-6.199-4.959-6.199c-2.066,0-3.997,1.412-4.615,3.719c-0.07,0.344-0.175,0.758-0.175,1.24V245.189z"/>
		<path d="M275.507,240.402c0-1.963-0.034-3.65-0.139-5.201h2.653l0.102,3.273h0.139c0.759-2.238,2.582-3.65,4.614-3.65
			c0.344,0,0.587,0.033,0.86,0.102v2.859c-0.307-0.068-0.617-0.104-1.033-0.104c-2.133,0-3.648,1.619-4.063,3.893
			c-0.067,0.412-0.139,0.895-0.139,1.412v8.885h-2.994V240.402z"/>
		<path d="M290.144,230.518c0.033,1.033-0.726,1.859-1.931,1.859c-1.067,0-1.823-0.826-1.823-1.859c0-1.066,0.79-1.893,1.894-1.893
			C289.418,228.625,290.144,229.451,290.144,230.518z M286.768,251.871v-16.67h3.031v16.67H286.768z"/>
		<path d="M309.223,227.42v20.146c0,1.482,0.033,3.17,0.138,4.305h-2.721l-0.138-2.893h-0.071c-0.929,1.861-2.96,3.271-5.681,3.271
			c-4.031,0-7.13-3.41-7.13-8.471c-0.034-5.547,3.409-8.955,7.474-8.955c2.549,0,4.271,1.205,5.026,2.547h0.071v-9.951H309.223z
			 M306.191,241.986c0-0.379-0.034-0.895-0.139-1.273c-0.449-1.928-2.1-3.514-4.375-3.514c-3.133,0-4.992,2.756-4.992,6.441
			c0,3.375,1.654,6.166,4.925,6.166c2.032,0,3.892-1.344,4.442-3.617c0.104-0.414,0.139-0.828,0.139-1.309V241.986z"/>
		<path d="M328.611,235.201c-0.07,1.207-0.138,2.549-0.138,4.58v9.68c0,3.824-0.76,6.164-2.377,7.611
			c-1.62,1.516-3.963,1.998-6.063,1.998c-1.998,0-4.202-0.482-5.546-1.377l0.76-2.309c1.1,0.689,2.821,1.309,4.891,1.309
			c3.099,0,5.371-1.617,5.371-5.82v-1.859h-0.067c-0.933,1.551-2.722,2.789-5.304,2.789c-4.135,0-7.096-3.512-7.096-8.129
			c0-5.646,3.684-8.85,7.508-8.85c2.893,0,4.476,1.516,5.202,2.893h0.067l0.139-2.516H328.611z M325.476,241.781
			c0-0.518-0.033-0.965-0.172-1.379c-0.551-1.756-2.032-3.203-4.236-3.203c-2.894,0-4.959,2.445-4.959,6.303
			c0,3.273,1.654,5.994,4.925,5.994c1.86,0,3.548-1.172,4.203-3.102c0.172-0.516,0.239-1.102,0.239-1.617V241.781z"/>
		<path d="M335.188,244.088c0.067,4.1,2.687,5.785,5.715,5.785c2.17,0,3.48-0.377,4.617-0.859l0.517,2.17
			c-1.069,0.482-2.893,1.033-5.546,1.033c-5.131,0-8.195-3.377-8.195-8.404s2.96-8.988,7.817-8.988c5.441,0,6.886,4.785,6.886,7.854
			c0,0.619-0.067,1.102-0.101,1.41H335.188z M344.072,241.918c0.033-1.928-0.79-4.924-4.203-4.924c-3.064,0-4.408,2.824-4.648,4.924
			H344.072z"/>
	</g>
	
		<line fill="none" stroke="#000000" stroke-width="0.5" stroke-linecap="round" stroke-linejoin="round" stroke-miterlimit="10" x1="179.424" y1="210.49" x2="179.424" y2="175.924"/>
	<polygon points="184.717,188.697 179.424,175.924 174.135,188.697 	"/>
	
		<polygon fill="none" stroke="#000000" stroke-width="0.5" stroke-linecap="round" stroke-linejoin="round" stroke-miterlimit="10" points="
		184.717,188.697 179.424,175.924 174.135,188.697 	"/>
	<polygon points="174.135,197.715 179.424,210.49 184.717,197.715 	"/>
	
		<polygon fill="none" stroke="#000000" stroke-width="0.5" stroke-linecap="round" stroke-linejoin="round" stroke-miterlimit="10" points="
		174.135,197.715 179.424,210.49 184.717,197.715 	"/>
	
		<line fill="none" stroke="#000000" stroke-width="0.5" stroke-linecap="round" stroke-linejoin="round" stroke-miterlimit="10" x1="103.379" y1="245.057" x2="137.944" y2="245.057"/>
	<polygon points="125.171,250.348 137.944,245.057 125.171,239.766 	"/>
	
		<polygon fill="none" stroke="#000000" stroke-width="0.5" stroke-linecap="round" stroke-linejoin="round" stroke-miterlimit="10" points="
		125.171,250.348 137.944,245.057 125.171,239.766 	"/>
	<polygon points="116.151,239.766 103.379,245.057 116.151,250.348 	"/>
	
		<polygon fill="none" stroke="#000000" stroke-width="0.5" stroke-linecap="round" stroke-linejoin="round" stroke-miterlimit="10" points="
		116.151,239.766 103.379,245.057 116.151,250.348 	"/>
	<g>
		<path d="M5,231.502c1.448-0.24,3.342-0.447,5.752-0.447c2.964,0,5.135,0.689,6.512,1.93c1.272,1.102,2.032,2.789,2.032,4.855
			c0,2.102-0.621,3.754-1.793,4.961c-1.583,1.688-4.165,2.547-7.095,2.547c-0.895,0-1.722-0.035-2.41-0.207v9.301H5V231.502z
			 M7.998,242.695c0.654,0.172,1.481,0.242,2.48,0.242c3.615,0,5.819-1.756,5.819-4.959c0-3.066-2.17-4.547-5.475-4.547
			c-1.31,0-2.31,0.102-2.825,0.24V242.695z"/>
		<path d="M39.543,253.684c-1.101,0.551-3.305,1.102-6.131,1.102c-6.545,0-11.47-4.133-11.47-11.744
			c0-7.268,4.925-12.191,12.125-12.191c2.893,0,4.719,0.619,5.509,1.031l-0.723,2.447c-1.137-0.553-2.754-0.967-4.685-0.967
			c-5.442,0-9.058,3.479-9.058,9.576c0,5.682,3.271,9.332,8.922,9.332c1.823,0,3.684-0.377,4.889-0.963L39.543,253.684z"/>
		<path d="M46.29,231.227v23.215h-2.997v-23.215H46.29z"/>
		<path d="M58.445,244.006v2.236h-8.506v-2.236H58.445z"/>
		<path d="M74.115,243.559h-9.022v8.367h10.056v2.516H62.095v-23.215h12.537v2.516h-9.539v7.334h9.022V243.559z"/>
	</g>
	
		<line fill="none" stroke="#000000" stroke-width="0.5" stroke-linecap="round" stroke-linejoin="round" stroke-miterlimit="10" x1="379.907" y1="227.773" x2="414.474" y2="227.773"/>
	<polygon points="401.7,233.064 414.474,227.773 401.7,222.482 	"/>
	
		<polygon fill="none" stroke="#000000" stroke-width="0.5" stroke-linecap="round" stroke-linejoin="round" stroke-miterlimit="10" points="
		401.7,233.064 414.474,227.773 401.7,222.482 	"/>
	<polygon points="392.681,222.482 379.907,227.773 392.681,233.064 	"/>
	
		<polygon fill="none" stroke="#000000" stroke-width="0.5" stroke-linecap="round" stroke-linejoin="round" stroke-miterlimit="10" points="
		392.681,222.482 379.907,227.773 392.681,233.064 	"/>
	<g>
		<path d="M423.938,233.508c1.344,0.826,3.305,1.516,5.374,1.516c3.064,0,4.854-1.619,4.854-3.963c0-2.168-1.238-3.408-4.371-4.613
			c-3.791-1.344-6.133-3.307-6.133-6.58c0-3.617,2.997-6.301,7.51-6.301c2.377,0,4.099,0.549,5.132,1.135l-0.827,2.445
			c-0.757-0.412-2.31-1.102-4.409-1.102c-3.169,0-4.374,1.895-4.374,3.479c0,2.17,1.414,3.238,4.614,4.479
			c3.929,1.516,5.924,3.408,5.924,6.818c0,3.582-2.649,6.682-8.128,6.682c-2.238,0-4.683-0.654-5.921-1.48L423.938,233.508z"/>
		<path d="M445.083,229.855l-2.413,7.303h-3.099l7.889-23.215h3.615l7.922,23.215h-3.203l-2.481-7.303H445.083z M452.691,227.514
			l-2.271-6.682c-0.517-1.514-0.86-2.893-1.205-4.236h-0.067c-0.345,1.379-0.726,2.789-1.171,4.201l-2.275,6.717H452.691z"/>
		<path d="M463.574,216.492h-7.058v-2.549h17.185v2.549h-7.095v20.666h-3.032V216.492z"/>
		<path d="M476.973,229.855l-2.414,7.303h-3.099l7.889-23.215h3.615l7.923,23.215h-3.203l-2.481-7.303H476.973z M484.581,227.514
			l-2.271-6.682c-0.517-1.514-0.861-2.893-1.205-4.236h-0.067c-0.345,1.379-0.727,2.789-1.172,4.201l-2.275,6.717H484.581z"/>
	</g>
	
		<line fill="none" stroke="#000000" stroke-width="0.5" stroke-linecap="round" stroke-linejoin="round" stroke-miterlimit="10" x1="379.907" y1="262.34" x2="414.474" y2="262.34"/>
	<polygon points="401.7,267.631 414.474,262.34 401.7,257.049 	"/>
	
		<polygon fill="none" stroke="#000000" stroke-width="0.5" stroke-linecap="round" stroke-linejoin="round" stroke-miterlimit="10" points="
		401.7,267.631 414.474,262.34 401.7,257.049 	"/>
	<polygon points="392.681,257.049 379.907,262.34 392.681,267.631 	"/>
	
		<polygon fill="none" stroke="#000000" stroke-width="0.5" stroke-linecap="round" stroke-linejoin="round" stroke-miterlimit="10" points="
		392.681,257.049 379.907,262.34 392.681,267.631 	"/>
	<g>
		<path d="M427.348,248.51v13.742c0,5.201,2.309,7.406,5.408,7.406c3.442,0,5.647-2.273,5.647-7.406V248.51h3.031v13.537
			c0,7.129-3.754,10.055-8.784,10.055c-4.752,0-8.334-2.721-8.334-9.918V248.51H427.348z"/>
		<path d="M446.218,268.072c1.343,0.828,3.305,1.516,5.374,1.516c3.064,0,4.854-1.617,4.854-3.961c0-2.168-1.238-3.408-4.371-4.613
			c-3.791-1.344-6.134-3.307-6.134-6.58c0-3.617,2.998-6.303,7.511-6.303c2.377,0,4.098,0.551,5.131,1.137l-0.827,2.445
			c-0.756-0.414-2.309-1.102-4.408-1.102c-3.17,0-4.375,1.893-4.375,3.479c0,2.17,1.415,3.236,4.614,4.477
			c3.93,1.518,5.925,3.41,5.925,6.82c0,3.58-2.65,6.682-8.129,6.682c-2.237,0-4.682-0.654-5.921-1.48L446.218,268.072z"/>
		<path d="M463.608,248.82c1.31-0.275,3.376-0.482,5.479-0.482c2.994,0,4.925,0.516,6.37,1.688c1.205,0.896,1.931,2.273,1.931,4.098
			c0,2.24-1.481,4.203-3.926,5.1v0.066c2.204,0.553,4.786,2.377,4.786,5.822c0,1.998-0.793,3.512-1.964,4.65
			c-1.617,1.479-4.236,2.168-8.024,2.168c-2.065,0-3.652-0.137-4.651-0.275V248.82z M466.606,258.326h2.721
			c3.169,0,5.029-1.654,5.029-3.893c0-2.721-2.065-3.789-5.097-3.789c-1.378,0-2.171,0.105-2.653,0.207V258.326z M466.606,269.451
			c0.587,0.102,1.448,0.137,2.515,0.137c3.099,0,5.958-1.137,5.958-4.51c0-3.17-2.721-4.479-5.992-4.479h-2.48V269.451z"/>
	</g>
</g>
</svg>
